<?xml version="1.0" standalone="no"?>
<!DOCTYPE svg PUBLIC "-//W3C//DTD SVG 20010904//EN"
 "http://www.w3.org/TR/2001/REC-SVG-20010904/DTD/svg10.dtd">
<svg version="1.0" xmlns="http://www.w3.org/2000/svg"
 width="30.000000pt" height="30.00pt" viewBox="0 0 711.000000 711.000000"
 preserveAspectRatio="xMidYMid meet">

<g transform="translate(0.000000,711.000000) scale(0.100000,-0.100000)"
fill="#eac03c" stroke="none">
<path d="M3345 7104 c-22 -2 -89 -9 -150 -14 -678 -65 -1351 -345 -1894 -787
-136 -111 -383 -358 -494 -494 -444 -544 -712 -1191 -789 -1899 -18 -172 -16
-575 6 -750 188 -1570 1338 -2805 2886 -3099 398 -75 892 -75 1290 0 1322 251
2370 1193 2760 2480 50 167 104 429 127 619 21 177 23 580 4 750 -69 624 -279
1191 -625 1684 -229 326 -546 643 -872 872 -203 142 -501 303 -719 389 -292
116 -622 198 -945 235 -97 11 -513 21 -585 14z m535 -65 c600 -49 1172 -265
1550 -584 137 -116 302 -318 315 -385 2 -11 0 -18 -5 -15 -5 3 -11 1 -15 -5
-3 -5 -11 -10 -17 -10 -7 0 -6 5 1 14 10 12 8 14 -16 12 -21 -3 -27 -8 -25
-22 3 -16 2 -16 -13 -4 -9 8 -22 15 -29 16 -6 1 -15 3 -21 4 -24 6 -55 -1 -68
-15 -13 -12 -17 -12 -26 -1 -8 9 -27 13 -54 11 -23 -2 -48 -4 -55 -4 -7 -1
-10 -6 -6 -12 4 -7 -1 -7 -16 1 -16 9 -29 9 -46 2 -17 -8 -24 -8 -27 1 -3 9
-10 9 -31 -1 -15 -7 -24 -8 -21 -2 3 6 -4 10 -17 10 -13 0 -33 3 -45 6 -21 6
-23 3 -23 -30 0 -33 2 -36 30 -36 17 0 30 -4 30 -8 0 -5 -19 -8 -42 -7 -42 1
-43 2 -52 43 -6 26 -15 41 -22 38 -6 -2 -17 1 -23 7 -19 19 -13 -15 9 -48 24
-36 28 -70 5 -39 -9 11 -14 14 -15 6 0 -8 -14 -2 -35 15 -20 16 -33 34 -30 42
3 9 0 11 -10 7 -8 -3 -15 0 -15 7 0 8 -3 7 -9 -2 -7 -11 -33 -15 -99 -15 -50
-1 -93 -4 -97 -8 -4 -4 -16 -1 -26 5 -16 10 -22 9 -30 -3 -8 -11 -12 -12 -16
-2 -6 15 -75 16 -91 0 -9 -9 -12 -9 -12 1 0 11 -14 12 -67 6 -109 -11 -1951
-16 -1958 -5 -4 6 -12 7 -18 3 -18 -11 -37 -12 -37 -2 0 5 -18 9 -40 9 -24 0
-40 -5 -40 -12 0 -9 -3 -9 -12 0 -15 15 -74 16 -83 2 -5 -8 -12 -7 -22 1 -11
10 -19 10 -33 1 -11 -6 -22 -8 -25 -3 -3 5 -40 9 -83 8 -42 0 -99 1 -127 2
-27 1 -60 0 -73 -3 -13 -3 -20 -1 -17 5 4 5 1 9 -5 9 -6 0 -8 5 -5 10 3 6 -1
10 -9 10 -20 0 -29 -17 -14 -24 7 -3 -13 -4 -44 -2 -55 4 -57 4 -48 -15 11
-20 6 -39 -10 -39 -4 0 -34 21 -65 46 -34 28 -52 38 -43 25 11 -19 11 -24 -4
-35 -10 -7 -18 -18 -18 -25 0 -6 -2 -11 -4 -11 -2 0 -11 -3 -20 -6 -21 -8 -21
17 -1 56 9 18 11 31 5 35 -6 3 -10 2 -10 -3 0 -6 -10 -10 -22 -10 -13 0 -41
-5 -63 -11 -31 -8 -50 -7 -84 5 -33 11 -47 12 -57 3 -8 -6 -14 -8 -14 -5 0 4
-9 2 -20 -4 -15 -8 -20 -8 -18 1 2 6 -10 13 -25 14 -24 3 -26 1 -16 -11 14
-17 -2 -19 -19 -2 -8 8 -15 8 -27 -2 -22 -19 50 104 94 160 175 221 354 365
632 510 512 265 1143 375 1829 319z m-2047 -2653 c191 -37 314 -154 349 -331
16 -86 16 -917 -1 -1004 -32 -164 -144 -283 -307 -326 -78 -21 -250 -21 -328
0 -181 48 -293 170 -316 345 -12 96 -13 827 0 943 5 56 18 108 34 142 85 186
316 279 569 231z m1167 -12 c122 -36 216 -105 264 -194 35 -64 55 -175 56
-307 l0 -102 -210 -3 -210 -3 0 125 c-1 138 -11 208 -31 221 -29 18 -68 10
-86 -18 -17 -25 -18 -65 -18 -523 0 -272 4 -512 8 -532 9 -44 36 -62 78 -53
47 10 53 35 57 213 l4 162 -41 0 -41 0 0 125 0 125 245 0 245 0 0 -435 0 -435
-133 0 -133 0 -18 55 -17 56 -44 -49 c-60 -67 -124 -94 -224 -94 -164 0 -304
92 -371 244 -32 74 -40 183 -40 573 0 431 10 568 45 641 50 103 174 192 304
220 82 17 235 11 311 -12z m1093 11 c146 -31 248 -104 306 -217 43 -86 50
-179 50 -613 0 -410 -8 -524 -44 -603 -74 -161 -221 -242 -440 -242 -174 0
-288 42 -378 140 -103 111 -117 193 -117 705 0 404 9 516 49 601 36 78 107
151 182 187 109 54 261 70 392 42z m929 -696 l3 -671 24 -19 c24 -19 54 -18
76 3 6 6 11 250 13 683 l2 675 215 0 215 0 -1 -582 c0 -692 -4 -763 -44 -842
-79 -157 -208 -226 -420 -227 -171 -1 -291 39 -386 128 -67 63 -98 130 -109
239 -9 85 -14 1276 -6 1285 2 2 97 3 210 1 l205 -3 3 -670z m-4122 26 l0 -645
130 0 130 0 0 -165 0 -165 -340 0 -340 0 0 810 0 810 210 0 210 0 0 -645z
m5680 485 l0 -160 -125 0 -125 0 0 -650 0 -650 -210 0 -210 0 0 650 0 650
-125 0 -125 0 0 160 0 160 460 0 460 0 0 -160z m-3435 -3620 c3 -5 -1 -10 -10
-10 -9 0 -13 5 -10 10 3 6 8 10 10 10 2 0 7 -4 10 -10z m-52 -31 c-6 -29 -5
-31 15 -20 11 6 22 16 24 22 2 6 12 10 22 8 17 -4 16 -7 -8 -36 -26 -31 -27
-33 -7 -33 11 0 26 9 33 19 18 29 40 15 33 -20 -5 -22 -2 -31 10 -35 21 -9 33
5 15 16 -9 6 110 8 310 6 179 -2 412 -5 518 -6 105 -2 192 -5 192 -9 0 -3 20
-7 45 -8 25 -1 45 3 45 8 0 14 161 -1 187 -17 25 -15 37 -18 30 -7 -8 13 57
13 65 0 6 -9 11 -8 17 3 22 35 38 48 68 53 27 5 38 1 70 -30 32 -30 46 -36 88
-38 36 -2 58 3 77 17 15 10 29 14 33 9 3 -5 -3 -14 -12 -20 -15 -9 -16 -12 -4
-20 10 -6 22 -6 34 1 16 8 17 12 6 19 -7 4 -10 11 -6 15 3 4 13 2 20 -4 8 -7
16 -11 18 -9 3 1 -6 -8 -20 -20 -14 -12 -73 -47 -131 -76 -368 -190 -800 -281
-1335 -281 -434 -1 -790 56 -1121 179 -112 42 -316 144 -354 178 -14 12 -24
21 -21 20 2 -2 10 2 18 9 7 6 17 8 20 4 4 -4 1 -11 -6 -15 -8 -5 -9 -11 -4
-14 6 -4 15 5 22 20 11 23 13 24 29 10 25 -22 59 -30 68 -16 4 8 3 9 -4 5 -7
-4 -12 -2 -12 4 0 7 6 10 13 7 39 -14 57 -17 57 -9 0 5 11 12 25 14 18 4 25 1
26 -11 0 -14 1 -14 11 1 11 15 13 15 37 0 21 -14 24 -14 17 -2 -7 12 -6 13 5
3 16 -15 33 -17 24 -3 -4 6 10 9 32 9 44 0 177 8 246 16 26 3 52 3 58 -1 5 -3
38 -7 72 -7 51 -2 65 1 79 18 16 20 16 20 42 -4 14 -14 26 -20 26 -15 0 10 47
34 67 34 8 0 25 -8 40 -17 l26 -17 -14 24 c-20 38 -20 53 3 77 28 29 29 29 21
-8z m1683 -15 c-3 -8 -2 -13 3 -10 5 3 14 -1 21 -9 16 -20 49 -19 72 1 16 16
18 16 24 0 8 -20 -12 -45 -50 -61 -25 -11 -31 -9 -52 10 -27 25 -44 85 -24 85
7 0 10 -7 6 -16z m214 -108 c0 -3 -4 -8 -10 -11 -5 -3 -10 -1 -10 4 0 6 5 11
10 11 6 0 10 -2 10 -4z"/>
<path d="M1664 4099 c-18 -20 -19 -40 -19 -551 l0 -530 24 -19 c30 -25 53 -24
77 2 18 20 19 46 22 543 2 407 -1 526 -11 546 -17 34 -66 39 -93 9z"/>
<path d="M3919 4103 c-11 -13 -15 -112 -17 -527 -2 -281 0 -526 3 -544 10 -55
80 -67 107 -19 9 16 13 143 16 455 5 469 -1 614 -25 637 -19 20 -67 19 -84 -2z"/>
<path d="M4687 444 c-11 -11 5 -34 25 -34 13 0 17 -4 12 -12 -6 -9 -3 -9 9 1
13 10 14 18 6 32 -9 18 -39 26 -52 13z"/>
<path d="M2110 431 c0 -5 5 -13 10 -16 6 -3 10 -2 10 4 0 5 -4 13 -10 16 -5 3
-10 2 -10 -4z"/>
<path d="M2991 429 c-1 -24 10 -30 25 -14 18 18 18 31 0 16 -11 -9 -15 -9 -19
1 -4 9 -6 8 -6 -3z"/>
<path d="M4580 419 c0 -5 5 -7 10 -4 6 3 10 8 10 11 0 2 -4 4 -10 4 -5 0 -10
-5 -10 -11z"/>
</g>
</svg>
